<?xml version="1.0" ?><svg height="400px" version="1.1" viewBox="0 0 400 400" width="400px" xmlns="http://www.w3.org/2000/svg" xmlns:xlink="http://www.w3.org/1999/xlink"><title/><desc/><defs><path d="M333.813875,318.254192 C305.489312,343.668086 268.049979,359.127096 227,359.127096 C138.63444,359.127096 67,287.492656 67,199.127096 C67,116.440111 129.723475,48.4029791 210.186125,40 C177.538287,69.2929021 157,111.811512 157,159.127096 C157,247.492656 228.63444,319.127096 317,319.127096 C322.678575,319.127096 328.288057,318.831271 333.813875,318.254192 L333.813875,318.254192 Z" id="path-1"/><filter filterUnits="objectBoundingBox" height="200%" id="filter-2" width="200%" x="-50%" y="-50%"><feOffset dx="0" dy="2" in="SourceAlpha" result="shadowOffsetOuter1"/><feGaussianBlur in="shadowOffsetOuter1" result="shadowBlurOuter1" stdDeviation="2"/><feColorMatrix in="shadowBlurOuter1" type="matrix" values="0 0 0 0 0   0 0 0 0 0   0 0 0 0 0  0 0 0 0.5 0"/></filter></defs><g fill="none" fill-rule="evenodd" id="Page-1" stroke="none" stroke-width="1"><g id="moon"><path d="M200,400 C310.45695,400 400,310.45695 400,200 C400,89.54305 310.45695,0 200,0 C89.54305,0 0,89.54305 0,200 C0,310.45695 89.54305,400 200,400 Z" fill="#82A3A1" id="background"/><g id="Combined-Shape"><use fill="black" fill-opacity="1" filter="url(#filter-2)" xlink:href="#path-1"/><use fill="#F2ECD2" fill-rule="evenodd" xlink:href="#path-1"/></g></g></g></svg>