<?xml version="1.0"?>
<svg width="1920" height="120" xmlns="http://www.w3.org/2000/svg" xmlns:svg="http://www.w3.org/2000/svg">

 <g class="layer">
  <title>Layer 1</title>
  <path d="m0,120l0,-46.29c76.46,-22.2 165.74,-32.17 252.8,-28c112.58,5.37 218.13,33.31 330.88,37.5c118.14,4.36 236.06,-16.88 349.12,-35.26c110.83,-18 221.28,-24.88 335.04,-13.08c57.84,6 111.76,17.84 167.12,29.34c148.22,30.79 345.84,70.08 485.04,3.32l0,52.47l-1920,0z" fill="#060B28" id="svg_1" opacity="0.25"/>
  <path d="m0,120l0,-15.81c20.8,-21.11 44.22,-41.05 76.3,-56.24c82.76,-39.22 187.7,-38.95 283.03,-19.53c49.84,10.15 96.14,26.07 143.47,39.8c65.47,19 135.57,46 209.33,49.67c58.01,2.85 113.44,-9.42 157.76,-31.56c50.83,-25.39 99.71,-62 165.81,-73c64.7,-10.79 130.16,6.69 190.6,24.28c60.45,17.59 120.26,39 187.08,43.05c95.56,5.85 181.24,-22.88 270.24,-38.84c48.32,-8.66 94.4,-6.17 139.34,7.5c35.89,10.89 76.8,26.93 97.04,49.24l0,21.44l-1920,0z" fill="#060B28" id="svg_2" opacity="0.5"/>
  <path d="m0,120l0,-5.63c239.89,-53.37 502.54,-65.69 761.33,-36.94c68.8,7.64 134.77,20.12 204.17,26.46c94.4,8.63 179.97,-12.24 264.9,-35.4c94.29,-25.71 187.2,-43.73 291.52,-38.49c138.45,7 275.94,45.71 398.08,84.81l0,5.19l-1920,0z" fill="#060B28" id="svg_3"/>
 </g>
</svg>